<svg width="12" height="12" viewBox="0 0 12 12" fill="none" xmlns="http://www.w3.org/2000/svg">
<path fill-rule="evenodd" clip-rule="evenodd" d="M1.91666 1.33317C1.76195 1.33317 1.61357 1.39463 1.50418 1.50402C1.39478 1.61342 1.33332 1.76179 1.33332 1.9165V9.84155L2.67084 8.50402C2.78024 8.39463 2.92861 8.33317 3.08332 8.33317H10.0833C10.238 8.33317 10.3864 8.27171 10.4958 8.16232C10.6052 8.05292 10.6667 7.90455 10.6667 7.74984V1.9165C10.6667 1.76179 10.6052 1.61342 10.4958 1.50402C10.3864 1.39463 10.238 1.33317 10.0833 1.33317H1.91666ZM0.67922 0.679067C1.00741 0.350878 1.45253 0.166504 1.91666 0.166504H10.0833C10.5475 0.166504 10.9926 0.350878 11.3208 0.679067C11.6489 1.00726 11.8333 1.45237 11.8333 1.9165V7.74984C11.8333 8.21397 11.6489 8.65909 11.3208 8.98727C10.9926 9.31546 10.5475 9.49984 10.0833 9.49984H3.32495L1.16247 11.6623C0.995637 11.8291 0.744735 11.8791 0.526758 11.7888C0.308781 11.6985 0.166656 11.4858 0.166656 11.2498V1.9165C0.166656 1.45238 0.351031 1.00726 0.67922 0.679067Z" fill="#5A5A5A"/>
</svg>
