<svg width="20" height="20" viewBox="0 0 20 20" fill="none" xmlns="http://www.w3.org/2000/svg">
<path fill-rule="evenodd" clip-rule="evenodd" d="M1.22039 12.8869C2.00179 12.1055 3.0616 11.6665 4.16667 11.6665H10.8333C11.9384 11.6665 12.9982 12.1055 13.7796 12.8869C14.561 13.6683 15 14.7281 15 15.8332V17.4998C15 17.9601 14.6269 18.3332 14.1667 18.3332C13.7064 18.3332 13.3333 17.9601 13.3333 17.4998V15.8332C13.3333 15.1701 13.0699 14.5342 12.6011 14.0654C12.1323 13.5966 11.4964 13.3332 10.8333 13.3332H4.16667C3.50363 13.3332 2.86774 13.5966 2.3989 14.0654C1.93006 14.5342 1.66667 15.1701 1.66667 15.8332V17.4998C1.66667 17.9601 1.29357 18.3332 0.833333 18.3332C0.373096 18.3332 0 17.9601 0 17.4998V15.8332C0 14.7281 0.438987 13.6683 1.22039 12.8869Z" fill="#333333"/>
<path fill-rule="evenodd" clip-rule="evenodd" d="M7.49998 3.33317C6.11927 3.33317 4.99998 4.45246 4.99998 5.83317C4.99998 7.21388 6.11927 8.33317 7.49998 8.33317C8.88069 8.33317 9.99998 7.21388 9.99998 5.83317C9.99998 4.45246 8.88069 3.33317 7.49998 3.33317ZM3.33331 5.83317C3.33331 3.53198 5.19879 1.6665 7.49998 1.6665C9.80117 1.6665 11.6666 3.53198 11.6666 5.83317C11.6666 8.13436 9.80117 9.99984 7.49998 9.99984C5.19879 9.99984 3.33331 8.13436 3.33331 5.83317Z" fill="#333333"/>
<path fill-rule="evenodd" clip-rule="evenodd" d="M15.8598 12.4001C15.9749 11.9545 16.4294 11.6865 16.875 11.8016C17.7689 12.0324 18.5608 12.5535 19.1264 13.2831C19.692 14.0128 19.9993 14.9096 20 15.8328L20 17.5001C20 17.9603 19.6269 18.3334 19.1667 18.3334C18.7064 18.3334 18.3333 17.9603 18.3333 17.5001V15.8341C18.3333 15.834 18.3333 15.8341 18.3333 15.8341C18.3329 15.2802 18.1485 14.742 17.8092 14.3043C17.4698 13.8665 16.9947 13.5538 16.4583 13.4153C16.0127 13.3002 15.7447 12.8457 15.8598 12.4001Z" fill="#333333"/>
<path fill-rule="evenodd" clip-rule="evenodd" d="M12.5261 2.40174C12.6402 1.95588 13.0942 1.68699 13.5401 1.80114C14.4363 2.03062 15.2307 2.55188 15.798 3.28272C16.3653 4.01356 16.6732 4.91243 16.6732 5.8376C16.6732 6.76278 16.3653 7.66165 15.798 8.39249C15.2307 9.12333 14.4363 9.64458 13.5401 9.87406C13.0942 9.98822 12.6402 9.71932 12.5261 9.27347C12.4119 8.82761 12.6808 8.37364 13.1267 8.25948C13.6644 8.12179 14.141 7.80904 14.4814 7.37053C14.8218 6.93203 15.0066 6.39271 15.0066 5.8376C15.0066 5.2825 14.8218 4.74318 14.4814 4.30467C14.141 3.86617 13.6644 3.55342 13.1267 3.41573C12.6808 3.30157 12.4119 2.84759 12.5261 2.40174Z" fill="#333333"/>
</svg>
