<svg width="18" height="18" viewBox="0 0 18 18" fill="none" xmlns="http://www.w3.org/2000/svg">
<path fill-rule="evenodd" clip-rule="evenodd" d="M8.16669 2.33317C4.94503 2.33317 2.33335 4.94484 2.33335 8.1665C2.33335 11.3882 4.94503 13.9998 8.16669 13.9998C11.3883 13.9998 14 11.3882 14 8.1665C14 4.94484 11.3883 2.33317 8.16669 2.33317ZM0.666687 8.1665C0.666687 4.02437 4.02455 0.666504 8.16669 0.666504C12.3088 0.666504 15.6667 4.02437 15.6667 8.1665C15.6667 12.3086 12.3088 15.6665 8.16669 15.6665C4.02455 15.6665 0.666687 12.3086 0.666687 8.1665Z" fill="black"/>
<path fill-rule="evenodd" clip-rule="evenodd" d="M12.2858 12.2856C12.6112 11.9601 13.1388 11.9601 13.4643 12.2856L17.0893 15.9106C17.4147 16.236 17.4147 16.7637 17.0893 17.0891C16.7638 17.4145 16.2362 17.4145 15.9108 17.0891L12.2858 13.4641C11.9603 13.1387 11.9603 12.611 12.2858 12.2856Z" fill="black"/>
</svg>
