<svg width="64" height="64" viewBox="0 0 64 64" fill="none" xmlns="http://www.w3.org/2000/svg">
<rect x="2.5" y="2.5" width="59" height="59" rx="7.5" fill="white" stroke="black" stroke-width="5"/>
<path d="M18.9855 43.85C18.7855 43.8833 18.6355 43.8667 18.5355 43.8C18.4355 43.7 18.3355 43.5833 18.2355 43.45C17.9355 43.1167 17.6022 42.9 17.2355 42.8C16.9022 42.6667 16.7855 42.4833 16.8855 42.25C16.8855 42.25 16.9522 42.1333 17.0855 41.9C17.2189 41.6667 17.4022 41.45 17.6355 41.25C18.2022 40.9833 18.7689 40.75 19.3355 40.55C19.9355 40.3167 20.6855 40 21.5855 39.6C22.5189 39.2 23.7522 38.6167 25.2855 37.85C26.2189 37.35 27.0189 36.95 27.6855 36.65C28.3855 36.35 28.9189 36.05 29.2855 35.75C29.6855 35.4167 29.8689 35.0333 29.8355 34.6C29.5689 33.9333 28.6855 33.1333 27.1855 32.2C25.6855 31.2667 23.6689 30.3333 21.1355 29.4C20.3022 29.1 19.5522 28.7667 18.8855 28.4C18.2189 28.0333 17.7855 27.6833 17.5855 27.35C17.3855 26.9833 17.5355 26.6833 18.0355 26.45C18.2355 26.4167 18.5022 26.3833 18.8355 26.35C19.1689 26.2833 19.6022 26.2667 20.1355 26.3C20.7022 26.3 21.3522 26.4167 22.0855 26.65C23.3189 27.0833 24.2355 27.4 24.8355 27.6C25.4689 27.8 26.1022 28.1667 26.7355 28.7C27.9022 29.2 28.8522 29.7667 29.5855 30.4C30.3189 31.0333 31.0355 31.8167 31.7355 32.75L33.4355 35.05L33.6855 36.55C33.4189 36.5833 33.0189 36.75 32.4855 37.05C31.9522 37.3167 31.6522 37.4667 31.5855 37.5C31.2189 37.7667 30.7855 38.0333 30.2855 38.3C29.7855 38.5667 29.1189 38.9 28.2855 39.3C27.4855 39.7 26.4022 40.2333 25.0355 40.9C23.5689 41.4333 22.5689 41.8833 22.0355 42.25C21.5022 42.6167 21.0022 42.9167 20.5355 43.15C20.3022 43.3167 20.0189 43.4833 19.6855 43.65C19.3855 43.8167 19.1522 43.8833 18.9855 43.85ZM37.85 46.4C37.65 46.4 37.4 46.3833 37.1 46.35C36.8 46.35 36.4667 46.2833 36.1 46.15C35.6 46.15 35.2667 46.1 35.1 46C34.9333 45.8667 34.7833 45.6833 34.65 45.45C34.2833 44.95 34.25 44.6167 34.55 44.45C34.85 44.25 35.6167 44.0833 36.85 43.95C37.4167 43.8167 38.25 43.7167 39.35 43.65C40.4833 43.55 41.7 43.4833 43 43.45C44.3 43.3833 45.5333 43.3333 46.7 43.3C47.8667 43.2667 48.7833 43.25 49.45 43.25C50.3167 43.25 50.9 43.2833 51.2 43.35C51.5 43.4167 51.8333 43.6333 52.2 44C52.7 44.5 52.8833 44.9833 52.75 45.45C52.6167 45.8833 52.1667 46.0333 51.4 45.9C51.2333 45.9 50.9667 45.9167 50.6 45.95C50.2667 45.9833 49.8833 46.0167 49.45 46.05C49.05 46.0833 48.65 46.1167 48.25 46.15C48.05 46.15 47.5 46.1667 46.6 46.2C45.7 46.2333 44.65 46.2667 43.45 46.3C42.2833 46.3333 41.1667 46.35 40.1 46.35C39.0667 46.3833 38.3167 46.4 37.85 46.4Z" fill="black"/>
</svg>
